# xmcd
#
# Track frame offsets:
#	150
#	12774
#	27465
#	41115
#	53721
#	66868
#	78176
#	90940
#	100691
#	112963
#	125166
#	136665
#	146843
#	163245
#
# Disc length: 2339 seconds
#
# Revision: 4
# Processed by: cddbd v1.5.2PL0 Copyright (c) Steve Scherf et al.
# Submitted via: audiograbber 1.83.01
#
DISCID=b509210e
DTITLE=Various Artist - Mega Country Vol. I CD1
DYEAR=1997
DGENRE=Country
TTITLE0=Willie Nelson - Shelter of your arms
TTITLE1=Don Gibson - I can't stop loving you
TTITLE2=Kenny Rogers - Ruby don't take your love to town
TTITLE3=Wanda Jackson - Crazy
TTITLE4=Johnny Darell - Son of Hickery Holler's Tramp
TTITLE5=Jim Reeves - Am I losing you
TTITLE6=Charley Pride - Crystal Chandeliers
TTITLE7=Johnny Cash - Why me Lord
TTITLE8=Loretta Lynn - Me and Bobby McGee
TTITLE9=Red Simpson - I got a beaver on my lap
TTITLE10=George Jones - Talk back trembling lips
TTITLE11=Merle Haggard - Mama tried
TTITLE12=Lynn Anderson - When I dream
TTITLE13=G. Pitney and G. Jones - Wreck on the highway
EXTD=YEAR: 1997
EXTT0=
EXTT1=
EXTT2=
EXTT3=
EXTT4=
EXTT5=
EXTT6=
EXTT7=
EXTT8=
EXTT9=
EXTT10=
EXTT11=
EXTT12=
EXTT13=
PLAYORDER=
